<svg width="45" height="44" viewBox="0 0 45 44" fill="none" xmlns="http://www.w3.org/2000/svg">
<path d="M0.5 22C0.5 9.84974 10.3497 0 22.5 0C34.6503 0 44.5 9.84974 44.5 22C44.5 34.1503 34.6503 44 22.5 44C10.3497 44 0.5 34.1503 0.5 22Z" fill="white"/>
<g clip-path="url(#clip0_1_12321)">
<path d="M25.8334 16C26.0085 15.8249 26.2163 15.686 26.4451 15.5913C26.6739 15.4965 26.9191 15.4478 27.1667 15.4478C27.4143 15.4478 27.6595 15.4965 27.8883 15.5913C28.1171 15.686 28.3249 15.8249 28.5 16C28.6751 16.1751 28.814 16.383 28.9088 16.6118C29.0036 16.8406 29.0523 17.0857 29.0523 17.3334C29.0523 17.581 29.0036 17.8262 28.9088 18.055C28.814 18.2837 28.6751 18.4916 28.5 18.6667L19.5 27.6667L15.8334 28.6667L16.8334 25L25.8334 16Z" stroke="#EF4444" stroke-width="2" stroke-linecap="round" stroke-linejoin="round"/>
</g>
<defs>
<clipPath id="clip0_1_12321">
<rect width="16" height="16" fill="white" transform="translate(14.5 14)"/>
</clipPath>
</defs>
</svg>
